<svg id="Layer_1" data-name="Layer 1" xmlns="http://www.w3.org/2000/svg" viewBox="0 0 200 200">
  <defs>
    <style> 
      .svg-style-0 { 
        fill: #D1AB74; 
      }
    </style>
  </defs>
  <path id="industry-126" d="M178.93,175.8h-6a9.27,9.27,0,0,0,.87-3.94,14.7,14.7,0,0,0-14.68-14.68H107V26.11a9.75,9.75,0,0,0,1.3-1.35h46.79v6.73a7.62,7.62,0,0,0-4.82,4.21L126.06,89a2.28,2.28,0,0,0-.15.36,7,7,0,0,0-.52,2.2,5.54,5.54,0,0,0,0,.81c0,.47,0,.93.07,1.4a32,32,0,0,0,63.77,0c0-.47.06-.93.07-1.4a7.42,7.42,0,0,0-.54-3,2.28,2.28,0,0,0-.15-.36L164.34,35.7a7.57,7.57,0,0,0-4.82-4.21V24.76H177.1a6.77,6.77,0,0,0,0-13.53H108.32A10.27,10.27,0,0,0,107,9.89v-3a6.77,6.77,0,1,0-13.54,0V9.47a11.11,11.11,0,0,0-1.8,1.76H22.91a6.77,6.77,0,1,0,0,13.53H41v6.73a7.59,7.59,0,0,0-4.82,4.21L11.92,89a3.88,3.88,0,0,0-.15.36,7.27,7.27,0,0,0-.51,2.2,5.49,5.49,0,0,0,0,.81c0,.47,0,.93.07,1.4a32,32,0,0,0,63.77,0c0-.47.06-.93.07-1.4a7.36,7.36,0,0,0,0-.81,7.28,7.28,0,0,0-.52-2.2c0-.12-.1-.25-.15-.36L50.21,35.7a7.59,7.59,0,0,0-4.82-4.21V24.76H91.68a10.34,10.34,0,0,0,1.8,1.76V157.18H41.36a14.69,14.69,0,0,0-14.67,14.68,9.42,9.42,0,0,0,.86,3.94H21.07A14.68,14.68,0,0,0,6.4,190.46a9.42,9.42,0,0,0,9.41,9.41H184.19a9.42,9.42,0,0,0,9.41-9.41A14.68,14.68,0,0,0,178.93,175.8ZM93.68,18a6.17,6.17,0,0,1,.46-2.36A6.35,6.35,0,0,1,97.9,12a6.06,6.06,0,0,1,2.1-.36,6.18,6.18,0,0,1,2.61.57,6.29,6.29,0,0,1,3.25,3.4,6.17,6.17,0,0,1,.46,2.36,6.08,6.08,0,0,1-.46,2.35,6.29,6.29,0,0,1-5.86,4A6.06,6.06,0,0,1,97.9,24a6.32,6.32,0,0,1-3.76-3.61A6.08,6.08,0,0,1,93.68,18Zm63.64,101a27.53,27.53,0,0,1-27.46-25.29h54.91A27.53,27.53,0,0,1,157.32,119Zm3-81.51L183.9,89.33H130.74l23.57-51.81a3.31,3.31,0,0,1,6,0ZM177.1,15.64a2.36,2.36,0,0,1,0,4.71H110.47a10.8,10.8,0,0,0,0-4.71ZM97.9,6.9a2.36,2.36,0,1,1,4.71,0v.68A10.66,10.66,0,0,0,100,7.26a10.39,10.39,0,0,0-2.1.21ZM43.19,119A27.51,27.51,0,0,1,15.73,93.74H70.64A27.53,27.53,0,0,1,43.19,119Zm3-81.51L69.76,89.33H16.6L40.18,37.52a3.3,3.3,0,0,1,6,0ZM22.91,20.35a2.36,2.36,0,0,1,0-4.71H89.53a10.8,10.8,0,0,0,0,4.71Zm75,8.17a10.39,10.39,0,0,0,2.1.21,11.17,11.17,0,0,0,2.61-.31V157.18H97.9ZM41.36,161.6H159.14a10.28,10.28,0,0,1,10.26,10.26,5,5,0,0,1-2,3.94H33.05a5,5,0,0,1-1.95-3.94A10.28,10.28,0,0,1,41.36,161.6Zm142.83,33.86H15.81a5,5,0,0,1-5-5,10.28,10.28,0,0,1,10.25-10.25H178.93a10.28,10.28,0,0,1,10.25,10.25A5,5,0,0,1,184.19,195.46Z" class="svg-style-0"/>
</svg>
