<?xml version="1.0" encoding="UTF-8"?>
<svg id="Layer_1" data-name="Layer 1" xmlns="http://www.w3.org/2000/svg" version="1.1" viewBox="0 0 196.4775 250">
  <defs>
    <style>
      .cls-1 {
        fill: #D1AB74;
        stroke-width: 0px;
      }
    </style>
  </defs>
  <path id="path-01" class="cls-1" d="M3.64078,250h30.89683c2.0106,0,3.64078-1.63076,3.64078-3.64078v-76.36624c0-2.01001-1.63017-3.64078-3.64078-3.64078H3.64078c-2.0106,0-3.64078,1.63076-3.64078,3.64078v76.36624c0,2.01001,1.63017,3.64078,3.64078,3.64078ZM7.28155,173.63376h23.61527v69.08469H7.28155v-69.08469ZM56.40656,93.81637c-2.0106,0-3.64078,1.63076-3.64078,3.64078v148.90208c0,2.01001,1.63017,3.64078,3.64078,3.64078h30.89742c2.0112,0,3.64078-1.63076,3.64078-3.64078V97.45715c0-2.01001-1.62958-3.64078-3.64078-3.64078h-30.89742ZM83.6632,242.71845h-23.61586V101.09792h23.61586v141.62052ZM109.17352,131.85016c-2.0112,0-3.64078,1.63076-3.64078,3.64078v110.86829c0,2.01001,1.62958,3.64078,3.64078,3.64078h30.89683c2.0112,0,3.64078-1.63076,3.64078-3.64078v-110.86829c0-2.01001-1.62958-3.64078-3.64078-3.64078h-30.89683ZM136.42957,242.71845h-23.61527v-103.58673h23.61527v103.58673ZM192.83672,56.99143h-30.89801c-2.0112,0-3.64078,1.63076-3.64078,3.64078v185.72702c0,2.01001,1.62958,3.64078,3.64078,3.64078h30.89801c2.0112,0,3.64078-1.63076,3.64078-3.64078V60.63221c0-2.01001-1.62958-3.64078-3.64078-3.64078ZM189.19595,242.71845h-23.61646V64.27298h23.61646v178.44546ZM19.08919,139.89021c8.41693,0,15.26412-6.84779,15.26412-15.26471,0-3.74507-1.36114-7.17489-3.60819-9.83377l35.33817-48.57865c1.78246.73124,3.72966,1.1413,5.77227,1.1413,3.76937,0,7.21756-1.3807,9.88355-3.65381l28.7363,20.71403c-.71524,1.76528-1.11819,3.68996-1.11819,5.70886,0,8.41456,6.84779,15.26234,15.26471,15.26234s15.26353-6.84779,15.26353-15.26234c0-3.82625-1.42514-7.31948-3.75929-10.00088l35.70734-50.6574c1.7238.67672,3.59337,1.06189,5.55479,1.06189,8.41693,0,15.26353-6.84779,15.26353-15.26234,0-8.41693-6.8466-15.26471-15.26353-15.26471s-15.26471,6.84779-15.26471,15.26471c0,3.82566,1.42573,7.31829,3.76107,10.00028l-35.70616,50.65622c-1.72439-.67731-3.59456-1.06249-5.55657-1.06249-3.76877,0-7.21696,1.3807-9.88295,3.65263l-28.73748-20.71344c.71464-1.76528,1.1176-3.68937,1.1176-5.70827,0-8.41693-6.8466-15.26471-15.26353-15.26471s-15.26412,6.84779-15.26412,15.26471c0,3.74507,1.36114,7.17489,3.60759,9.83377l-35.33817,48.57865c-1.78246-.73124-3.72907-1.1413-5.77167-1.1413-8.41693,0-15.26412,6.84779-15.26412,15.26471s6.8472,15.26471,15.26412,15.26471ZM19.08919,116.64233c4.40164,0,7.98257,3.58152,7.98257,7.98316s-3.58093,7.98316-7.98257,7.98316-7.98257-3.58152-7.98257-7.98316,3.58093-7.98316,7.98257-7.98316ZM63.87299,52.08965c0-4.40164,3.58093-7.98316,7.98257-7.98316s7.98198,3.58152,7.98198,7.98316-3.58033,7.98316-7.98198,7.98316-7.98257-3.58152-7.98257-7.98316ZM124.62194,82.14028c4.40164,0,7.98198,3.58152,7.98198,7.98316s-3.58033,7.98079-7.98198,7.98079-7.98316-3.57915-7.98316-7.98079,3.58152-7.98316,7.98316-7.98316ZM169.40515,15.26471c0-4.40164,3.58152-7.98316,7.98316-7.98316s7.98198,3.58152,7.98198,7.98316-3.58033,7.98079-7.98198,7.98079-7.98316-3.57915-7.98316-7.98079Z"/>
</svg>
