<svg id="Layer_1" data-name="Layer 1" xmlns="http://www.w3.org/2000/svg" viewBox="0 0 200 200">
  <defs>
    <style> 
      .svg-style-0 {  
        fill: #D1AB74; 
      }
    </style>
  </defs>
  <path id="industry-124" d="M195.9,146.25l-27-27a3.92,3.92,0,0,0,0-5.51l-6-6a3.92,3.92,0,0,0-5.51,0L126.61,77a12.68,12.68,0,0,0,2.09-4.13,6.9,6.9,0,0,0,8.71-4.53l.08.07a6.89,6.89,0,0,0,9.73,0,6.89,6.89,0,0,0,0-9.73l-.09-.09A6.84,6.84,0,0,0,152,52a6.84,6.84,0,0,0-2-4.87L124.08,21.19a6.89,6.89,0,0,0-9.73,0,6.7,6.7,0,0,0-1.71,2.87l-.09-.09a6.88,6.88,0,0,0-9.73,9.73l.09.09A6.58,6.58,0,0,0,100,35.51a6.81,6.81,0,0,0-2,4.86,7,7,0,0,0,.34,2.12,12.82,12.82,0,0,0-5.48,3.27L74.79,63.84a13,13,0,0,0-3.26,5.49A6.93,6.93,0,0,0,69.4,69a6.87,6.87,0,0,0-6.58,4.88l-.08-.09A6.88,6.88,0,0,0,53,83.51l.09.09a6.68,6.68,0,0,0-2.87,1.72,6.86,6.86,0,0,0,0,9.72L76.15,121a6.86,6.86,0,0,0,11.44-2.87l.09.09a6.88,6.88,0,0,0,9.72-9.73l-.08-.08a6.87,6.87,0,0,0,4.54-8.71A12.8,12.8,0,0,0,106,97.58l30.75,30.75a3.91,3.91,0,0,0,0,5.51l6,6a3.92,3.92,0,0,0,2.77,1.14,3.87,3.87,0,0,0,2.74-1.12l27,27a9.32,9.32,0,0,0,13.2,0l7.41-7.41A9.32,9.32,0,0,0,195.9,146.25ZM117,23.87a3.1,3.1,0,0,1,4.37,0l25.92,25.92a3.1,3.1,0,0,1,0,4.37,3.1,3.1,0,0,1-4.37,0L117,28.24A3.08,3.08,0,0,1,117,23.87ZM83.2,118.29a3.1,3.1,0,0,1-4.37,0L52.9,92.36A3.09,3.09,0,0,1,57.28,88L83.2,113.91A3.11,3.11,0,0,1,83.2,118.29Zm11.53-2.79a3.1,3.1,0,0,1-4.37,0L55.69,80.83a3.09,3.09,0,0,1,4.37-4.37l34.67,34.67A3.08,3.08,0,0,1,94.73,115.5ZM105.5,26.65a3.1,3.1,0,0,1,4.37,0l34.67,34.67a3.08,3.08,0,0,1,0,4.37,3.1,3.1,0,0,1-4.37,0L105.5,31A3.08,3.08,0,0,1,105.5,26.65Zm-2.78,11.53a3.64,3.64,0,0,1,.48-.4l.2-.12.41-.19.21-.06a1.8,1.8,0,0,1,.22-.06l.17,0a3.91,3.91,0,0,1,.49,0h.29l.21,0,.17,0,.21.06.21.06.21.09a3.11,3.11,0,0,1,.4.22,3.72,3.72,0,0,1,.49.4L133,64.1a3.1,3.1,0,0,1,0,4.38,3.06,3.06,0,0,1-1,.67,3.16,3.16,0,0,1-1.72.18l-.06,0a1.34,1.34,0,0,1-.27-.07,1,1,0,0,1-.21-.07l-.25-.1a1.19,1.19,0,0,1-.22-.12h0l0,0a.76.76,0,0,1-.19-.12l-.14-.1-.25-.22-5.88-5.89L108.59,48.43l-5.87-5.88c-.11-.12-.21-.23-.3-.35l-.16-.24c-.07-.13-.13-.25-.19-.38a2.7,2.7,0,0,1-.14-.4,1.86,1.86,0,0,1-.08-.41,2.69,2.69,0,0,1,0-.4A3.08,3.08,0,0,1,102.72,38.18ZM97.51,104a3.1,3.1,0,0,1-4.37,0L67.22,78.05a3.08,3.08,0,0,1,0-4.37,2.93,2.93,0,0,1,.48-.39,2.35,2.35,0,0,1,.54-.29l.28-.09a3,3,0,0,1,.58-.12h.59a2.94,2.94,0,0,1,.59.12l.28.09.28.13.16.09h0l.1.07a1.1,1.1,0,0,1,.21.14,3.15,3.15,0,0,1,.28.25L97.51,99.6a3.47,3.47,0,0,1,.25.29,2.61,2.61,0,0,1,.2.3,0,0,0,0,1,0,0,0,0,0,0,1,0,0,1.74,1.74,0,0,1,.14.27.38.38,0,0,1,.06.13c0,.1.07.19.1.29a.74.74,0,0,1,0,.14,2.1,2.1,0,0,1,.06.33,2.83,2.83,0,0,1,0,.41A3,3,0,0,1,97.51,104Zm7.15-10.25a9.18,9.18,0,0,1-3,2l-.37.14a6.59,6.59,0,0,1-.72.22,4.35,4.35,0,0,1-.46.11,3,3,0,0,1-.45.08h0l-24.7-24.7a0,0,0,0,1,0,0,4.81,4.81,0,0,1,.13-.66.15.15,0,0,1,0-.07c0-.21.11-.41.18-.62a5,5,0,0,1,.23-.65v0a5.51,5.51,0,0,1,.28-.61.11.11,0,0,1,0-.06c.08-.18.18-.35.28-.53h0a1.76,1.76,0,0,1,.14-.23,4.63,4.63,0,0,1,.31-.46,4.57,4.57,0,0,1,.38-.49l.17-.21c.13-.15.28-.3.42-.45L95.56,48.43a6.37,6.37,0,0,1,.55-.5,0,0,0,0,0,0,0c.17-.14.34-.28.51-.4l.15-.1a4.13,4.13,0,0,1,.49-.32s0,0,0,0a4.67,4.67,0,0,1,.49-.27l.13-.07.56-.26.15-.06.39-.15.43-.14a8.29,8.29,0,0,1,.86-.21l.34,0,24.69,24.69a6.85,6.85,0,0,1-.16.76c0,.15-.07.29-.11.43l-.15.47-.15.37a3.45,3.45,0,0,1-.14.34l-.15.32-.14.26-.18.32-.27.43c-.18.26-.38.53-.59.78a7.65,7.65,0,0,1-.55.6L121.34,77,106.08,92.3Zm4.1,1.26L124,79.72l30.68,30.66-15.28,15.27Zm36.85,42.16,0,0h0l0,0a.13.13,0,0,1-.09,0l-6-6a.12.12,0,0,1,0-.15h0a.08.08,0,0,0,0,0l2.65-2.64,15.28-15.28,2.67-2.67h.07a.11.11,0,0,1,.09,0l6,6a.12.12,0,0,1,0,.15l0,0-2.65,2.65-15.27,15.27Zm47.62,19.63-7.43,7.42a5.55,5.55,0,0,1-7.84,0l-27-27,15.26-15.27,27,27A5.55,5.55,0,0,1,193.23,156.77Zm-54.4,4.62h-6.62a6.19,6.19,0,0,0,.5-2.44v-7a6.24,6.24,0,0,0-6.23-6.22H20.63A6.23,6.23,0,0,0,14.41,152v7a6,6,0,0,0,.5,2.44H7.59a6.24,6.24,0,0,0-6.23,6.22v7a6.24,6.24,0,0,0,6.23,6.23H138.83a6.24,6.24,0,0,0,6.23-6.23v-7A6.24,6.24,0,0,0,138.83,161.39ZM18.19,159v-7a2.43,2.43,0,0,1,2.44-2.43H126.48a2.43,2.43,0,0,1,2.44,2.43v7a2.44,2.44,0,0,1-2.44,2.44H20.63A2.44,2.44,0,0,1,18.19,159Zm123.08,15.64a2.44,2.44,0,0,1-2.44,2.44H7.59a2.44,2.44,0,0,1-2.44-2.44v-7a2.44,2.44,0,0,1,2.44-2.43H138.83a2.44,2.44,0,0,1,2.44,2.43Z" class="svg-style-0"/>
</svg>
