<svg version="1.1" id="Layer_1" xmlns="http://www.w3.org/2000/svg" xmlns:xlink="http://www.w3.org/1999/xlink" x="0px" y="0px" viewBox="42.23404 1640.02124 300 300" style="enable-background:new 42.23404 1640.02124 300 300;" xml:space="preserve">
  <defs>
    <style> 
      .svg-style-0 { 
        fill: #D1AB74; 
      }
    </style>
  </defs>
  <path id="path-01_00000124879091290762259220000008736953527324293310_" d="M327.75284,1734.5542h-80.05173v-80.05176
    c0-7.98438-6.49686-14.4812-14.48122-14.4812h-81.97171c-7.98434,0-14.48122,6.49683-14.48122,14.4812v80.05176H56.71526
    c-7.98435,0-14.48121,6.49683-14.48121,14.4812v81.97168c0,7.98438,6.49686,14.4812,14.48121,14.4812h80.05171v80.05176
    c0,7.98438,6.49687,14.4812,14.48122,14.4812h81.97171c7.98436,0,14.48122-6.49683,14.48122-14.4812v-80.05176h80.05173
    c7.98434,0,14.4812-6.49683,14.4812-14.4812v-81.97168C342.23404,1741.05103,335.73718,1734.5542,327.75284,1734.5542z
    M56.71526,1741.58423h87.08179v-87.08179c0-4.10779,3.3434-7.45117,7.45114-7.45117h81.97171
    c4.10774,0,7.45114,3.34338,7.45114,7.45117v87.08179h87.0818c4.10773,0,7.45114,3.34338,7.45114,7.45117v37.30151H230.93376
    c-1.7415,0-3.22212,1.27686-3.47614,3.00012l-3.84915,25.94397l-13.58643-91.63806
    c-0.25403-1.72327-1.73463-3.00012-3.47614-3.00012s-3.22212,1.27686-3.47614,3.00012l-7.39622,49.84888l-12.64587-85.16626
    c-0.25403-1.72327-1.73463-2.99792-3.47614-2.99792s-3.22212,1.27698-3.47614,3.00012l-16.61174,112.04639l-4.79199-32.23267
    c-0.2563-1.72314-1.73462-2.9978-3.47612-2.9978H49.26411v-16.10828C49.26411,1744.92761,52.60752,1741.58423,56.71526,1741.58423z
    M327.75284,1838.45825h-87.0818v87.08179c0,4.10779-3.3434,7.45117-7.45114,7.45117h-81.97171
    c-4.10774,0-7.45114-3.34338-7.45114-7.45117v-87.08179H56.71526c-4.10774,0-7.45114-3.34338-7.45114-7.45117v-58.83337h98.89926
    l7.82874,52.65686c0.2563,1.72327,1.73463,2.99792,3.47614,2.99792s3.22211-1.27698,3.47612-3.00012l16.60947-112.03259
    l12.6436,85.15723c0.25401,1.72314,1.73463,2.9978,3.47612,2.9978c1.7415,0,3.22212-1.27698,3.47614-3.00012l7.39394-49.83301
    l13.58643,91.63806c0.25403,1.72327,1.73463,3.00012,3.47614,3.00012s3.22212-1.27686,3.47614-3.00012l6.88361-46.38879h101.23805
    v37.64014C335.20398,1835.11487,331.86057,1838.45825,327.75284,1838.45825z" class="svg-style-0"/>
</svg>
